HIERARCHY
ROOT pelvis
{
  OFFSET 0 100 0
  CHANNELS 6 Xposition Yposition Zposition Zrotation Xrotation Yrotation
  JOINT pelvis_right_femur
  {
    OFFSET -10.78128 -3.44521 -0.5502486
    CHANNELS 3 Zrotation Xrotation Yrotation
    JOINT right_femur_tibia
    {
      OFFSET -0.8047443 -44.0398 -0.1307829
      CHANNELS 3 Zrotation Xrotation Yrotation
      JOINT right_tibia_foot
      {
        OFFSET 3.006224 -47.83518 -5
        CHANNELS 3 Zrotation Xrotation Yrotation
        End Site
        {
          OFFSET 0 -5 15
        }
      }
    }
  }
  JOINT pelvis_left_femur
  {
    OFFSET 10.78128 -3.44521 -0.5502486
    CHANNELS 3 Zrotation Xrotation Yrotation
    JOINT left_femur_tibia
    {
      OFFSET 0.8047443 -44.0398 -0.1307829
      CHANNELS 3 Zrotation Xrotation Yrotation
      JOINT left_tibia_foot
      {
        OFFSET -4.370144 -48.10324 -4.275266
        CHANNELS 3 Zrotation Xrotation Yrotation
        End Site
        {
          OFFSET 0 -5 15
        }
      }
    }
  }
  JOINT pelvis_spine1
  {
    OFFSET 0 6.468898 -3.129235
    CHANNELS 3 Zrotation Xrotation Yrotation
    JOINT spine1
    {
      OFFSET 0 23.15396 4.99043
      CHANNELS 3 Zrotation Xrotation Yrotation
      JOINT spine2
      {
        OFFSET 0 20.79997 -5.064912
        CHANNELS 3 Zrotation Xrotation Yrotation
        JOINT neck
        {
          OFFSET 0 14.38658 9.616178
          CHANNELS 3 Zrotation Xrotation Yrotation
          End Site
          {
            OFFSET 0 20 0
          }
        }
      }
      JOINT right_manubrium
      {
        OFFSET -5.722621 16.35077 3.967754
        CHANNELS 3 Zrotation Xrotation Yrotation
        JOINT right_clavicle
        {
          OFFSET -13.16364 1.694482 -4.693211
          CHANNELS 3 Zrotation Xrotation Yrotation
          JOINT right_humerus
          {
            OFFSET -28.5034 -0.3100689 -2.792744
            CHANNELS 3 Zrotation Xrotation Yrotation
            JOINT right_radius
            {
              OFFSET -25.15693 0.02248979 -1.271978
              CHANNELS 3 Zrotation Xrotation Yrotation
              End Site
              {
                OFFSET -15 0 0
              }
            }
          }
        }
      }
      JOINT left_manubrium
      {
        OFFSET 5.722621 16.35077 3.967754
        CHANNELS 3 Zrotation Xrotation Yrotation
        JOINT left_clavicle
        {
          OFFSET 13.16364 1.694482 -4.693211
          CHANNELS 3 Zrotation Xrotation Yrotation
          JOINT left_humerus
          {
            OFFSET 29.39168 -1.063119 -2.237045
            CHANNELS 3 Zrotation Xrotation Yrotation
            JOINT left_radius
            {
              OFFSET 24.59957 -0.9528479 0.9047498
              CHANNELS 3 Zrotation Xrotation Yrotation
              End Site
              {
                OFFSET 15 -0 -0
              }
            }
          }
        }
      }
    }
  }
}
MOTION
Frames: 9
Frame Time: 0.0416666666667
-1397.564 109.2266 158.124 6.052268 8.445337 150.5141 7.113076 9.376294 -2.317344 -0 16.11703 -0 -8.024176 -2.155375 0.8852652 2.560332 -13.78288 -3.092207 -0 22.07743 -0 0.854582 -1.110581 13.21818 2.937956 -5.000859 8.266543 -0.005212721 19.33245 -6.407456 0.5521797 19.64647 3.890905 1.476544 -20.03481 4.566417 -2.51095 -32.9425 14.5445 92.0713 8.892126 -14.88349 -0 0 26.26711 -29.74754 17.76987 16.03731 1.890087 -26.21355 -11.67273 -96.33385 11.38614 38.89385 0 0 -14.31533 5.412603 16.23121 6.518453
-1395.719 109.2151 152.5741 6.1204 8.396263 150.0489 7.113076 9.376294 -2.317344 -0 16.11703 -0 -8.024176 -2.155375 0.8852652 2.560332 -13.78288 -3.092207 -0 22.07743 -0 0.854582 -1.110581 13.21818 2.937956 -5.000859 8.266543 -0.005212721 19.33245 -6.407456 0.5521797 19.64647 3.890905 1.476544 -20.03481 4.566417 -2.51095 -32.9425 14.5445 92.0713 8.892126 -14.88349 -0 0 26.26711 -29.74754 17.76987 16.03731 1.890087 -26.21355 -11.67273 -96.33385 11.38614 38.89385 0 0 -14.31533 5.412603 16.23121 6.518453
-1393.83 109.2036 147.0392 6.188119 8.346643 149.5838 7.113076 9.376294 -2.317344 -0 16.11703 -0 -8.024176 -2.155375 0.8852652 2.560332 -13.78288 -3.092207 -0 22.07743 -0 0.854582 -1.110581 13.21818 2.937956 -5.000859 8.266543 -0.005212721 19.33245 -6.407456 0.5521797 19.64647 3.890905 1.476544 -20.03481 4.566417 -2.51095 -32.9425 14.5445 92.0713 8.892126 -14.88349 -0 0 26.26711 -29.74754 17.76987 16.03731 1.890087 -26.21355 -11.67273 -96.33385 11.38614 38.89385 0 0 -14.31533 5.412603 16.23121 6.518453
-1391.896 109.1922 141.5198 6.25542 8.296481 149.1187 7.113076 9.376294 -2.317344 -0 16.11703 -0 -8.024176 -2.155375 0.8852652 2.560332 -13.78288 -3.092207 -0 22.07743 -0 0.854582 -1.110581 13.21818 2.937956 -5.000859 8.266543 -0.005212721 19.33245 -6.407456 0.5521797 19.64647 3.890905 1.476544 -20.03481 4.566417 -2.51095 -32.9425 14.5445 92.0713 8.892126 -14.88349 -0 0 26.26711 -29.74754 17.76987 16.03731 1.890087 -26.21355 -11.67273 -96.33385 11.38614 38.89385 0 0 -14.31533 5.412603 16.23121 6.518453
-1389.917 109.1807 136.0162 6.322299 8.245781 148.6538 7.113076 9.376294 -2.317344 -0 16.11703 -0 -8.024176 -2.155375 0.8852652 2.560332 -13.78288 -3.092207 -0 22.07743 -0 0.854582 -1.110581 13.21818 2.937956 -5.000859 8.266543 -0.005212721 19.33245 -6.407456 0.5521797 19.64647 3.890905 1.476544 -20.03481 4.566417 -2.51095 -32.9425 14.5445 92.0713 8.892126 -14.88349 -0 0 26.26711 -29.74754 17.76987 16.03731 1.890087 -26.21355 -11.67273 -96.33385 11.38614 38.89385 0 0 -14.31533 5.412603 16.23121 6.518453
-1387.894 109.1693 130.5287 6.388751 8.194545 148.1891 7.113076 9.376294 -2.317344 -0 16.11703 -0 -8.024176 -2.155375 0.8852652 2.560332 -13.78288 -3.092207 -0 22.07743 -0 0.854582 -1.110581 13.21818 2.937956 -5.000859 8.266543 -0.005212721 19.33245 -6.407456 0.5521797 19.64647 3.890905 1.476544 -20.03481 4.566417 -2.51095 -32.9425 14.5445 92.0713 8.892126 -14.88349 -0 0 26.26711 -29.74754 17.76987 16.03731 1.890087 -26.21355 -11.67273 -96.33385 11.38614 38.89385 0 0 -14.31533 5.412603 16.23121 6.518453
-1385.826 109.1578 125.0578 6.454773 8.142778 147.7244 7.113076 9.376294 -2.317344 -0 16.11703 -0 -8.024176 -2.155375 0.8852652 2.560332 -13.78288 -3.092207 -0 22.07743 -0 0.854582 -1.110581 13.21818 2.937956 -5.000859 8.266543 -0.005212721 19.33245 -6.407456 0.5521797 19.64647 3.890905 1.476544 -20.03481 4.566417 -2.51095 -32.9425 14.5445 92.0713 8.892126 -14.88349 -0 0 26.26711 -29.74754 17.76987 16.03731 1.890087 -26.21355 -11.67273 -96.33385 11.38614 38.89385 0 0 -14.31533 5.412603 16.23121 6.518453
-1383.715 109.1464 119.6038 6.52036 8.090482 147.2599 7.113076 9.376294 -2.317344 -0 16.11703 -0 -8.024176 -2.155375 0.8852652 2.560332 -13.78288 -3.092207 -0 22.07743 -0 0.854582 -1.110581 13.21818 2.937956 -5.000859 8.266543 -0.005212721 19.33245 -6.407456 0.5521797 19.64647 3.890905 1.476544 -20.03481 4.566417 -2.51095 -32.9425 14.5445 92.0713 8.892126 -14.88349 -0 0 26.26711 -29.74754 17.76987 16.03731 1.890087 -26.21355 -11.67273 -96.33385 11.38614 38.89385 0 0 -14.31533 5.412603 16.23121 6.518453
-1381.559 109.1349 114.1669 6.585508 8.037662 146.7955 7.113076 9.376294 -2.317344 -0 16.11703 -0 -8.024176 -2.155375 0.8852652 2.560332 -13.78288 -3.092207 -0 22.07743 -0 0.854582 -1.110581 13.21818 2.937956 -5.000859 8.266543 -0.005212721 19.33245 -6.407456 0.5521797 19.64647 3.890905 1.476544 -20.03481 4.566417 -2.51095 -32.9425 14.5445 92.0713 8.892126 -14.88349 -0 0 26.26711 -29.74754 17.76987 16.03731 1.890087 -26.21355 -11.67273 -96.33385 11.38614 38.89385 0 0 -14.31533 5.412603 16.23121 6.518453
